<svg xmlns="http://www.w3.org/2000/svg" width="23" height="18" viewBox="0 0 23 18">
    <g fill="#FFF" fill-rule="evenodd">
        <path fill-rule="nonzero" d="M15.565 1.584l-.81-1.182C14.603.181 14.257 0 13.983 0H9.018c-.274 0-.62.18-.773.402l-.809 1.182H2.301C1.033 1.584 0 2.588 0 3.822v11.939C0 16.995 1.033 18 2.3 18h18.4c1.269 0 2.3-1.005 2.3-2.24V3.823c0-1.233-1.031-2.238-2.3-2.238h-5.135zM3.569 5.955c-.715 0-1.295-.565-1.295-1.26 0-.698.58-1.262 1.295-1.262.716 0 1.296.565 1.296 1.261 0 .697-.58 1.261-1.296 1.261zm7.931 9.059c-2.962 0-5.366-2.338-5.366-5.222 0-2.886 2.404-5.224 5.366-5.224 2.964 0 5.368 2.338 5.368 5.224 0 2.884-2.404 5.222-5.368 5.222z"/>
        <path d="M11.5 13a3.5 3.5 0 1 1 0-7 3.5 3.5 0 0 1 0 7z"/>
    </g>
</svg>
