<svg xmlns="http://www.w3.org/2000/svg" width="18" height="18" viewBox="0 0 18 18">
    <path fill="#FFF" fill-rule="nonzero" d="M9 0a9.002 9.002 0 0 0-6.364 15.364 9.002 9.002 0 0 0 12.728 0 9.002 9.002 0 0 0 0-12.728A9.002 9.002 0 0 0 9 0zm-.123 14.921a1.03 1.03 0 1 1 0-2.06 1.03 1.03 0 0 1 0 2.06zm1.126-5.002s-.102.037-.102.096v.818h.001a1.026 1.026 0 0 1-2.05 0v-.818a2.168 2.168 0 0 1 1.494-2.04 1.455 1.455 0 0 0 .994-1.428A1.496 1.496 0 0 0 8.868 5.13a1.453 1.453 0 0 0-1.304.827 1.025 1.025 0 1 1-1.848-.89A3.489 3.489 0 0 1 8.85 3.08h.021a3.541 3.541 0 0 1 3.517 3.407 3.495 3.495 0 0 1-2.383 3.431l-.002.002z"/>
</svg>
